<svg width="23" height="23" viewBox="0 0 23 23" fill="none" xmlns="http://www.w3.org/2000/svg">
<g clip-path="url(#clip0_1_6)">
<path d="M18.209 0.479187H4.7923C2.41057 0.479187 0.479797 2.40996 0.479797 4.79169V18.2084C0.479797 20.5901 2.41057 22.5209 4.7923 22.5209H18.209C20.5907 22.5209 22.5215 20.5901 22.5215 18.2084V4.79169C22.5215 2.40996 20.5907 0.479187 18.209 0.479187Z" fill="#F5F5F5" stroke="#EEEEEE" stroke-width="0.971398"/>
<path fill-rule="evenodd" clip-rule="evenodd" d="M11.1301 6.81567C11.1301 6.22725 11.593 5.75 12.1651 5.75H15.9611C16.5332 5.75 16.9961 6.22725 16.9961 6.81567V15.8527H17.2932C17.4509 15.8527 17.6021 15.9154 17.7136 16.0269C17.8252 16.1384 17.8878 16.2897 17.8878 16.4474C17.8878 16.6051 17.8252 16.7564 17.7136 16.8679C17.6021 16.9794 17.4509 17.042 17.2932 17.042H5.70403C5.54645 17.042 5.39532 16.9794 5.28389 16.868C5.17246 16.7566 5.10986 16.6055 5.10986 16.4479C5.10986 16.2903 5.17246 16.1392 5.28389 16.0277C5.39532 15.9163 5.54645 15.8537 5.70403 15.8537H6.2982V10.9624C6.2982 10.373 6.76203 9.89671 7.3332 9.89671H10.4401V15.8537H11.1301V6.81567ZM11.9926 7.3485C11.9926 7.15204 12.1469 6.99392 12.3376 6.99392H15.7886C15.9793 6.99392 16.1336 7.15204 16.1336 7.3485C16.1336 7.54496 15.9793 7.70308 15.7886 7.70308H12.3386C12.2926 7.70246 12.2473 7.69279 12.2051 7.67463C12.1629 7.65647 12.1247 7.63018 12.0926 7.59725C12.0606 7.56433 12.0354 7.52541 12.0184 7.48273C12.0014 7.44005 11.992 7.39444 11.9926 7.3485ZM12.3376 9.12429C12.2917 9.12492 12.2463 9.13458 12.2041 9.15274C12.1619 9.1709 12.1237 9.1972 12.0917 9.23012C12.0596 9.26305 12.0344 9.30196 12.0174 9.34465C12.0004 9.38733 11.992 9.43294 11.9926 9.47887C11.9926 9.67533 12.1469 9.83442 12.3376 9.83442H15.7886C15.9793 9.83442 16.1336 9.67533 16.1336 9.47983C16.1342 9.4339 16.1258 9.38829 16.1088 9.3456C16.0918 9.30292 16.0666 9.26401 16.0345 9.23108C16.0025 9.19815 15.9643 9.17186 15.9221 9.1537C15.8799 9.13554 15.8345 9.12588 15.7886 9.12525H12.3386L12.3376 9.12429ZM11.9926 11.6112C11.9926 11.4147 12.1469 11.2556 12.3376 11.2556H15.7886C15.9793 11.2556 16.1336 11.4147 16.1336 11.6102C16.1336 11.8067 15.9793 11.9658 15.7886 11.9658H12.3386C12.2926 11.9651 12.2473 11.9555 12.2051 11.9373C12.1629 11.9191 12.1247 11.8928 12.0926 11.8599C12.0606 11.827 12.0354 11.7881 12.0184 11.7454C12.0014 11.7027 11.992 11.6571 11.9926 11.6112Z" fill="#B7B7B7"/>
</g>
<defs>
<clipPath id="clip0_1_6">
<rect width="23" height="23" fill="white"/>
</clipPath>
</defs>
</svg>
