<svg width="30" height="30" viewBox="0 0 30 30" fill="none" xmlns="http://www.w3.org/2000/svg">
<g clip-path="url(#clip0_1_85)">
<path d="M22.026 0.59848H7.52602C3.52195 0.59848 0.276016 3.84442 0.276016 7.84848V22.3485C0.276016 26.3525 3.52195 29.5985 7.52602 29.5985H22.026C26.0301 29.5985 29.276 26.3525 29.276 22.3485V7.84848C29.276 3.84442 26.0301 0.59848 22.026 0.59848Z" fill="url(#paint0_linear_1_85)"/>
<path d="M11.8125 7.36511V12.5207M11.8125 12.5207H6.6569M11.8125 12.5207V17.6762M11.8125 12.5207H16.968M11.8125 17.6762H6.6569M11.8125 17.6762V22.8318M11.8125 17.6762H16.968M16.968 12.5207V7.36511M16.968 12.5207V17.6762M16.968 12.5207H22.1236M16.968 17.6762H22.1236M16.968 17.6762V22.8318M10.2819 7.36511H18.4986C20.5006 7.36511 22.1236 8.98807 22.1236 10.9901V19.2068C22.1236 21.2088 20.5006 22.8318 18.4985 22.8318H10.2819C8.27987 22.8318 6.6569 21.2088 6.6569 19.2068V10.9901C6.6569 8.98807 8.27987 7.36511 10.2819 7.36511Z" stroke="white" stroke-width="1.21425" stroke-linecap="round" stroke-linejoin="round"/>
</g>
<defs>
<linearGradient id="paint0_linear_1_85" x1="14.3893" y1="2.04848" x2="14.3893" y2="29.5985" gradientUnits="userSpaceOnUse">
<stop stop-color="#F9D593"/>
<stop offset="1" stop-color="#FBE4B9"/>
</linearGradient>
<clipPath id="clip0_1_85">
<rect width="29" height="29" fill="white" transform="translate(0.276016 0.59848)"/>
</clipPath>
</defs>
</svg>
