<svg width="30" height="30" viewBox="0 0 30 30" fill="none" xmlns="http://www.w3.org/2000/svg">
<g clip-path="url(#clip0_1_64)">
<path d="M22.8132 0.327713H8.31317C4.30911 0.327713 1.06317 3.57365 1.06317 7.57771V22.0777C1.06317 26.0818 4.30911 29.3277 8.31317 29.3277H22.8132C26.8172 29.3277 30.0632 26.0818 30.0632 22.0777V7.57771C30.0632 3.57365 26.8172 0.327713 22.8132 0.327713Z" fill="url(#paint0_linear_1_64)"/>
<path d="M20.9754 9.51106H12.2754M20.9754 14.7146H12.2754M20.9754 20.1444H12.2754M9.8587 20.1444C9.8587 20.4113 9.6423 20.6277 9.37536 20.6277C9.10842 20.6277 8.89203 20.4113 8.89203 20.1444C8.89203 19.8775 9.10842 19.661 9.37536 19.661C9.6423 19.661 9.8587 19.8775 9.8587 20.1444ZM9.8587 14.8277C9.8587 15.0946 9.6423 15.311 9.37536 15.311C9.10842 15.311 8.89203 15.0946 8.89203 14.8277C8.89203 14.5608 9.10842 14.3444 9.37536 14.3444C9.6423 14.3444 9.8587 14.5608 9.8587 14.8277ZM9.8587 9.51106C9.8587 9.778 9.6423 9.99439 9.37536 9.99439C9.10842 9.99439 8.89203 9.778 8.89203 9.51106C8.89203 9.24413 9.10842 9.02773 9.37536 9.02773C9.6423 9.02773 9.8587 9.24413 9.8587 9.51106Z" stroke="white" stroke-width="1.21425" stroke-linecap="round" stroke-linejoin="round"/>
</g>
<defs>
<linearGradient id="paint0_linear_1_64" x1="15.1765" y1="-2.57229" x2="15.1765" y2="29.3277" gradientUnits="userSpaceOnUse">
<stop stop-color="#FDD87A"/>
<stop offset="0.0001" stop-color="#FFCD71"/>
<stop offset="1" stop-color="#FFB630"/>
</linearGradient>
<clipPath id="clip0_1_64">
<rect width="29" height="29" fill="white" transform="translate(0.861023 0.0264282)"/>
</clipPath>
</defs>
</svg>
